<svg width="20" height="24" viewBox="0 0 20 24" fill="none" xmlns="http://www.w3.org/2000/svg">
<path d="M6.18825 20.4418C5.10404 19.4507 4.78751 17.3683 5.23924 15.8596C6.0225 16.8108 7.10777 17.1121 8.23189 17.2822C9.96727 17.5446 11.6716 17.4465 13.2837 16.6533C13.4681 16.5625 13.6385 16.4417 13.8401 16.3194C13.9913 16.7583 14.0307 17.2013 13.9778 17.6522C13.8494 18.7504 13.3029 19.5988 12.4336 20.2418C12.086 20.499 11.7182 20.729 11.3592 20.9715C10.2563 21.7169 9.95796 22.591 10.3724 23.8623C10.3822 23.8935 10.391 23.9244 10.4133 24C9.8502 23.7479 9.43889 23.3809 9.12547 22.8985C8.79445 22.3894 8.63697 21.8261 8.6287 21.2167C8.62455 20.9201 8.62455 20.6208 8.58467 20.3284C8.48727 19.6156 8.15262 19.2964 7.52218 19.278C6.87517 19.2591 6.36336 19.6591 6.22764 20.2891C6.21728 20.3374 6.20225 20.3851 6.18722 20.4413L6.18825 20.4418Z" fill="#6B7280"/>
<path d="M0 15.6082C0 15.6082 3.21059 14.0442 6.43016 14.0442L8.85759 6.53168C8.94848 6.16838 9.21382 5.92147 9.5134 5.92147C9.81297 5.92147 10.0783 6.16838 10.1692 6.53168L12.5967 14.0442C16.4097 14.0442 19.0268 15.6082 19.0268 15.6082C19.0268 15.6082 13.5733 0.751925 13.5627 0.722117C13.4062 0.282886 13.1419 0 12.7857 0H6.24166C5.88543 0 5.63186 0.282886 5.46469 0.722117C5.45289 0.751364 0 15.6082 0 15.6082Z" fill="#6B7280"/>
</svg>
