<svg width="22" height="24" viewBox="0 0 22 24" fill="none" xmlns="http://www.w3.org/2000/svg">
<path fill-rule="evenodd" clip-rule="evenodd" d="M11 1.65676L19.9575 6.82838V17.1716L11 22.3433L2.04247 17.1716V6.82838L11 1.65676ZM3.04751 7.40866V15.006L9.62707 3.60996L3.04751 7.40866ZM11 3.24209L3.41539 16.379H18.5846L11 3.24209ZM17.5795 17.384H4.42043L11 21.1827L17.5795 17.384ZM18.9525 15.006L12.3729 3.60996L18.9525 7.40866V15.006Z" fill="#6B7280"/>
<path d="M11 4.35384C12.1691 4.35384 13.1168 3.40612 13.1168 2.23704C13.1168 1.06796 12.1691 0.120239 11 0.120239C9.83091 0.120239 8.88319 1.06796 8.88319 2.23704C8.88319 3.40612 9.83091 4.35384 11 4.35384Z" fill="#6B7280"/>
<path d="M19.455 9.23534C20.6241 9.23534 21.5718 8.28762 21.5718 7.11854C21.5718 5.94947 20.6241 5.00174 19.455 5.00174C18.2859 5.00174 17.3382 5.94947 17.3382 7.11854C17.3382 8.28762 18.2859 9.23534 19.455 9.23534Z" fill="#6B7280"/>
<path d="M19.455 18.9983C20.6241 18.9983 21.5718 18.0506 21.5718 16.8815C21.5718 15.7125 20.6241 14.7647 19.455 14.7647C18.2859 14.7647 17.3382 15.7125 17.3382 16.8815C17.3382 18.0506 18.2859 18.9983 19.455 18.9983Z" fill="#6B7280"/>
<path d="M11 23.8798C12.1691 23.8798 13.1168 22.9321 13.1168 21.763C13.1168 20.5939 12.1691 19.6462 11 19.6462C9.83091 19.6462 8.88319 20.5939 8.88319 21.763C8.88319 22.9321 9.83091 23.8798 11 23.8798Z" fill="#6B7280"/>
<path d="M2.5438 18.9983C3.71288 18.9983 4.6606 18.0506 4.6606 16.8815C4.6606 15.7125 3.71288 14.7647 2.5438 14.7647C1.37473 14.7647 0.427002 15.7125 0.427002 16.8815C0.427002 18.0506 1.37473 18.9983 2.5438 18.9983Z" fill="#6B7280"/>
<path d="M2.5438 9.23534C3.71288 9.23534 4.6606 8.28762 4.6606 7.11854C4.6606 5.94947 3.71288 5.00174 2.5438 5.00174C1.37473 5.00174 0.427002 5.94947 0.427002 7.11854C0.427002 8.28762 1.37473 9.23534 2.5438 9.23534Z" fill="#6B7280"/>
</svg>
