<svg width="26" height="26" viewBox="0 0 26 26" fill="none" xmlns="http://www.w3.org/2000/svg">
<path fill-rule="evenodd" clip-rule="evenodd" d="M6.5079 5.17069C6.23098 5.17069 6.03567 5.20417 5.83862 5.25265V5.28543H5.87036C6.00219 5.54596 6.23098 5.72697 6.39281 5.95506C6.52429 6.21628 6.63869 6.47646 6.76913 6.73804C6.78517 6.72199 6.80086 6.7049 6.80086 6.7049C7.03105 6.54238 7.14509 6.28151 7.14509 5.88915C7.04639 5.77405 7.03105 5.6607 6.94874 5.54596C6.85108 5.38309 6.63869 5.30147 6.5079 5.17069Z" fill="#6B7280" stroke="#6B7280" stroke-width="0.3"/>
<path fill-rule="evenodd" clip-rule="evenodd" d="M23.1577 19.3561C21.8512 19.3235 20.8395 19.4538 19.9909 19.8132C19.7461 19.9111 19.3548 19.9111 19.3213 20.2213C19.4528 20.3516 19.4685 20.5636 19.5836 20.744C19.7789 21.0704 20.121 21.5105 20.4318 21.7396C20.7746 22.0009 21.1174 22.2611 21.477 22.4896C22.1132 22.883 22.8316 23.1106 23.451 23.5025C23.8113 23.7307 24.1691 24.0243 24.5294 24.2698C24.7083 24.4003 24.8217 24.6128 25.0511 24.6936V24.6441C24.9361 24.4977 24.904 24.2854 24.7903 24.1213C24.6274 23.9593 24.4638 23.8115 24.3003 23.6489C23.8266 23.0125 23.2383 22.458 22.6032 22.0009C22.0804 21.6408 20.9371 21.1511 20.7258 20.5489C20.7258 20.5489 20.7087 20.5316 20.6926 20.5155C21.0519 20.4824 21.477 20.3516 21.8195 20.2526C22.3737 20.1061 22.8797 20.1393 23.451 19.9928C23.7126 19.927 23.9738 19.8448 24.2361 19.7646V19.6166C23.9407 19.3235 23.7293 18.9311 23.4193 18.6539C22.5875 17.9359 21.6723 17.2345 20.7258 16.646C20.219 16.3195 19.5661 16.1083 19.0273 15.8301C18.8323 15.732 18.5062 15.6837 18.3915 15.5195C18.0975 15.1605 17.9336 14.6878 17.7219 14.2627C17.2489 13.3659 16.791 12.3705 16.3837 11.4222C16.09 10.7861 15.9104 10.1499 15.5512 9.56193C13.8691 6.78646 12.0415 5.10612 9.23398 3.45716C8.62992 3.11397 7.91182 2.96714 7.14523 2.78753C6.73648 2.77044 6.32877 2.7387 5.92072 2.72266C5.65915 2.60792 5.39758 2.29752 5.16948 2.15069C4.23863 1.56337 1.84018 0.290376 1.15416 1.97142C0.71332 3.03306 1.80704 4.07726 2.18266 4.61611C2.45993 4.99103 2.81951 5.41617 3.01447 5.83992C3.12886 6.11754 3.16165 6.41189 3.27639 6.7052C3.53726 7.42331 3.78175 8.22338 4.12528 8.893C4.3042 9.23584 4.49985 9.59542 4.7283 9.90407C4.86013 10.0847 5.08787 10.1653 5.13705 10.46C4.9093 10.7861 4.89152 11.2758 4.76108 11.6842C4.17376 13.5288 4.40185 15.814 5.2347 17.1686C5.49523 17.5766 6.11638 18.4747 6.94888 18.1311C7.68337 17.8378 7.52016 16.9073 7.7322 16.0917C7.78103 15.8944 7.74825 15.765 7.8459 15.6346V15.6676C8.07434 16.124 8.30348 16.5636 8.51553 17.0222C9.02228 17.8212 9.90291 18.6539 10.6381 19.2083C11.0287 19.5033 11.3391 20.0085 11.8288 20.1886V20.1393H11.7967C11.6984 19.9928 11.5519 19.927 11.4211 19.8132C11.1274 19.5192 10.8017 19.16 10.5722 18.8337C9.88687 17.92 9.28211 16.9073 8.74466 15.8628C8.48274 15.3556 8.25465 14.8011 8.04226 14.2954C7.9446 14.1004 7.9446 13.8058 7.78103 13.7081C7.5355 14.0668 7.17732 14.3774 6.99805 14.8168C6.68765 15.5195 6.65522 16.3844 6.54013 17.2826C6.47526 17.2997 6.50804 17.2826 6.47526 17.3151C5.9535 17.1846 5.77389 16.646 5.57754 16.1904C5.08787 15.03 5.00556 13.1692 5.43071 11.8306C5.5444 11.4885 6.03546 10.4112 5.83876 10.0847C5.74006 9.77328 5.41397 9.59542 5.2347 9.34954C5.023 9.03948 4.79316 8.64852 4.64773 8.30498C4.25572 7.39122 4.05867 6.37876 3.63561 5.465C3.43961 5.03985 3.09608 4.59901 2.81951 4.20805C2.50876 3.76721 2.16627 3.45716 1.92109 2.93541C1.84018 2.75544 1.72578 2.46144 1.85587 2.26613C1.88796 2.13534 1.95422 2.08616 2.08501 2.05338C2.29601 1.87377 2.90077 2.10186 3.11247 2.19986C3.71688 2.444 4.22294 2.67384 4.7283 3.01597C4.95709 3.17954 5.20192 3.48959 5.49523 3.5719H5.83876C6.36086 3.68525 6.94888 3.60364 7.43889 3.75117C8.30348 4.02844 9.0868 4.43649 9.78922 4.87733C11.9268 6.23228 13.6898 8.15885 14.8808 10.46C15.0772 10.8349 15.1595 11.1781 15.3388 11.5691C15.6816 12.3705 16.1064 13.1866 16.4485 13.9694C16.791 14.7367 17.1182 15.5195 17.6085 16.1571C17.8526 16.4993 18.8323 16.6789 19.2732 16.8585C19.5989 17.005 20.1057 17.1358 20.3997 17.3151C20.9546 17.6573 21.5084 18.0496 22.0315 18.4257C22.2921 18.6216 23.1085 19.0292 23.1577 19.3561Z" fill="#6B7280" stroke="#6B7280" stroke-width="0.5"/>
</svg>
