<svg width="24" height="24" viewBox="0 0 24 24" fill="none" xmlns="http://www.w3.org/2000/svg">
<path d="M12 24C18.6274 24 24 18.6274 24 12C24 5.37258 18.6274 0 12 0C5.37258 0 0 5.37258 0 12C0 18.6274 5.37258 24 12 24Z" fill="black"/>
<path fill-rule="evenodd" clip-rule="evenodd" d="M12 0.8C5.81441 0.8 0.8 5.81441 0.8 12C0.8 18.1856 5.81441 23.2 12 23.2C18.1856 23.2 23.2 18.1856 23.2 12C23.2 5.81441 18.1856 0.8 12 0.8ZM0 12C0 5.37258 5.37258 0 12 0C18.6274 0 24 5.37258 24 12C24 18.6274 18.6274 24 12 24C5.37258 24 0 18.6274 0 12Z" fill="#6B7280"/>
<path d="M19.9344 21.0027L9.21893 7.2H7.2V16.796H8.81515V9.25115L18.6665 21.9793C19.1111 21.6819 19.5345 21.3553 19.9344 21.0027Z" fill="url(#paint0_linear_94_7)"/>
<path d="M16.9333 7.2H15.3333V16.8H16.9333V7.2Z" fill="url(#paint1_linear_94_7)"/>
<defs>
<linearGradient id="paint0_linear_94_7" x1="13.8208" y1="13.5324" x2="21.1924" y2="24.1362" gradientUnits="userSpaceOnUse">
<stop stop-color="#6B7280"/>
<stop offset="1" stop-color="white" stop-opacity="0"/>
</linearGradient>
<linearGradient id="paint1_linear_94_7" x1="16.1333" y1="7.19995" x2="16.1065" y2="14.25" gradientUnits="userSpaceOnUse">
<stop stop-color="#6B7280"/>
<stop offset="1" stop-color="white" stop-opacity="0"/>
</linearGradient>
</defs>
</svg>
