<svg width="24" height="12" viewBox="0 0 24 12" fill="none" xmlns="http://www.w3.org/2000/svg">
<path d="M1.81896 2.66949H5.22792C6.22848 2.67789 6.95352 2.96637 7.40304 3.53445C7.85256 4.10253 8.00088 4.87845 7.84824 5.86221C7.78896 6.31173 7.65744 6.75261 7.45392 7.18509C7.2588 7.61757 6.9876 8.00757 6.63984 8.35533C6.21576 8.79621 5.76216 9.07605 5.2788 9.19485C4.79544 9.31365 4.29504 9.37293 3.77784 9.37293H2.25144L1.76808 11.7897H0L1.81896 2.66949ZM3.3072 4.11957L2.544 7.93557C2.59488 7.94397 2.64576 7.94829 2.69664 7.94829C2.75592 7.94829 2.81544 7.94829 2.87472 7.94829C3.6888 7.95669 4.36728 7.87629 4.90992 7.70661C5.45256 7.52853 5.81736 6.90957 6.00384 5.84949C6.15648 4.95909 6.00384 4.44597 5.54592 4.31037C5.0964 4.17477 4.53264 4.11117 3.85416 4.11957C3.7524 4.12797 3.65496 4.13229 3.5616 4.13229C3.47688 4.13229 3.38784 4.13229 3.29448 4.13229L3.3072 4.11957Z" fill="#6B7280"/>
<path d="M9.86232 0.23999H11.6177L11.1216 2.66951H12.6989C13.5638 2.68655 14.2082 2.86463 14.6323 3.20375C15.0648 3.54287 15.192 4.18751 15.0139 5.13719L14.1617 9.37295H12.3809L13.195 5.32799C13.2797 4.90391 13.2542 4.60295 13.1186 4.42487C12.983 4.24679 12.6905 4.15775 12.241 4.15775L10.829 4.14503L9.786 9.37295H8.03064L9.86232 0.23999Z" fill="#6B7280"/>
<path d="M16.8989 2.66949H20.3079C21.3084 2.67789 22.0335 2.96637 22.483 3.53445C22.9325 4.10253 23.0808 4.87845 22.9282 5.86221C22.8689 6.31173 22.7374 6.75261 22.5339 7.18509C22.3388 7.61757 22.0676 8.00757 21.7198 8.35533C21.2957 8.79621 20.8421 9.07605 20.3588 9.19485C19.8754 9.31365 19.375 9.37293 18.8578 9.37293H17.3314L16.848 11.7897H15.08L16.8989 2.66949ZM18.3872 4.11957L17.624 7.93557C17.6748 7.94397 17.7257 7.94829 17.7766 7.94829C17.8359 7.94829 17.8954 7.94829 17.9547 7.94829C18.7688 7.95669 19.4472 7.87629 19.9899 7.70661C20.5325 7.52853 20.8973 6.90957 21.0838 5.84949C21.2364 4.95909 21.0838 4.44597 20.6259 4.31037C20.1764 4.17477 19.6126 4.11117 18.9341 4.11957C18.8324 4.12797 18.7349 4.13229 18.6416 4.13229C18.5568 4.13229 18.4678 4.13229 18.3744 4.13229L18.3872 4.11957Z" fill="#6B7280"/>
</svg>
