<svg width="23" height="22" viewBox="0 0 23 22" fill="none" xmlns="http://www.w3.org/2000/svg">
<path d="M11.5 13.2817C12.6322 13.2817 13.55 12.3639 13.55 11.2317C13.55 10.0995 12.6322 9.18168 11.5 9.18168C10.3678 9.18168 9.45 10.0995 9.45 11.2317C9.45 12.3639 10.3678 13.2817 11.5 13.2817Z" fill="#6B7280"/>
<path d="M11.5 13.2817C12.6322 13.2817 13.55 12.3639 13.55 11.2317C13.55 10.0995 12.6322 9.18168 11.5 9.18168C10.3678 9.18168 9.45 10.0995 9.45 11.2317C9.45 12.3639 10.3678 13.2817 11.5 13.2817Z" stroke="#6B7280"/>
<path d="M11.5 15.4317C17.5751 15.4317 22.5 13.5513 22.5 11.2317C22.5 8.91209 17.5751 7.03168 11.5 7.03168C5.42487 7.03168 0.5 8.91209 0.5 11.2317C0.5 13.5513 5.42487 15.4317 11.5 15.4317Z" stroke="#6B7280"/>
<path d="M7.86269 13.3317C10.9003 18.5929 14.9912 21.9178 17 20.758C19.0088 19.5982 18.1749 14.3929 15.1373 9.13168C12.0997 3.87046 8.00883 0.545605 6 1.7054C3.99117 2.8652 4.82513 8.07046 7.86269 13.3317Z" stroke="#6B7280"/>
<path d="M7.86269 9.13168C4.82513 14.3929 3.99117 19.5982 6 20.758C8.00883 21.9178 12.0997 18.5929 15.1373 13.3317C18.1749 8.07046 19.0088 2.8652 17 1.7054C14.9912 0.545604 10.9003 3.87046 7.86269 9.13168Z" stroke="#6B7280"/>
</svg>
