<svg width="24" height="16" viewBox="0 0 24 16" fill="none" xmlns="http://www.w3.org/2000/svg">
<path fill-rule="evenodd" clip-rule="evenodd" d="M13.6393 11.5074V14.9076C14.1902 15.1908 14.8417 15.4034 15.5939 15.545C16.346 15.6868 17.1388 15.7576 17.9722 15.7576C18.7844 15.7576 19.5559 15.6798 20.2868 15.5239C21.0179 15.368 21.6587 15.1113 22.2097 14.7535C22.7605 14.3956 23.1966 13.9282 23.5181 13.3508C23.8393 12.7736 24 12.0599 24 11.2099C24 10.5936 23.9081 10.0535 23.7246 9.58948C23.5408 9.1255 23.2761 8.7129 22.9299 8.35161C22.584 7.99035 22.169 7.66628 21.6853 7.37939C21.2015 7.09251 20.656 6.82155 20.0485 6.56655C19.6036 6.38238 19.2046 6.20351 18.8514 6.02996C18.4983 5.85641 18.1982 5.67932 17.951 5.49869C17.7038 5.31804 17.5131 5.12679 17.3789 4.9249C17.2447 4.72303 17.1776 4.49457 17.1776 4.23956C17.1776 4.00579 17.2376 3.79506 17.3577 3.60735C17.4778 3.41964 17.6473 3.25847 17.8662 3.12388C18.0852 2.98931 18.3535 2.88482 18.6713 2.81045C18.9892 2.73605 19.3423 2.69886 19.7307 2.69886C20.0133 2.69886 20.3115 2.72012 20.6259 2.76262C20.9401 2.80512 21.2562 2.87064 21.5741 2.9592C21.8919 3.04773 22.2007 3.1593 22.5011 3.29389C22.8012 3.42849 23.0783 3.58432 23.3326 3.76141V0.584413C22.817 0.386061 22.2538 0.239079 21.6429 0.143443C21.032 0.0478064 20.3312 0 19.54 0C18.7349 0 17.9722 0.0867634 17.2518 0.260315C16.5314 0.433866 15.8976 0.704824 15.3502 1.07316C14.8029 1.44153 14.3703 1.91081 14.0525 2.48104C13.7347 3.05127 13.5758 3.73307 13.5758 4.52645C13.5758 5.53942 13.8671 6.40361 14.4497 7.11905C15.0324 7.83452 15.917 8.44017 17.1035 8.93602C17.5696 9.12727 18.004 9.31501 18.4065 9.49918C18.8091 9.68334 19.1569 9.87459 19.45 10.0729C19.7431 10.2713 19.9743 10.4873 20.1438 10.7211C20.3135 10.9549 20.3981 11.2205 20.3981 11.518C20.3981 11.7377 20.3452 11.9413 20.2393 12.129C20.1333 12.3166 19.9726 12.4795 19.7572 12.6177C19.5418 12.7559 19.2734 12.864 18.9521 12.9418C18.6307 13.0196 18.2547 13.0587 17.8239 13.0587C17.0893 13.0587 16.3619 12.9295 15.6415 12.6708C14.9212 12.4124 14.2538 12.0245 13.6393 11.5074ZM7.9279 3.04349H12.3636V0.242424H0V3.04349H4.41404V15.5152H7.9279V3.04349Z" fill="#6B7280"/>
</svg>
