<svg width="234" height="74" viewBox="0 0 234 74" fill="none" xmlns="http://www.w3.org/2000/svg">
<path d="M20.5813 29.1544V5.32578H34.8591V7.8855H23.4647V15.937H33.7894V18.4967H23.4647V29.1544H20.5813Z" fill="#6B7280"/>
<path d="M59.8888 17.2401C59.8888 19.7533 59.4354 21.9251 58.5285 23.7557C57.6216 25.5863 56.3775 26.998 54.7962 27.9909C53.215 28.9837 51.409 29.4802 49.3781 29.4802C47.3473 29.4802 45.5413 28.9837 43.96 27.9909C42.3787 26.998 41.1347 25.5863 40.2278 23.7557C39.3209 21.9251 38.8674 19.7533 38.8674 17.2401C38.8674 14.7269 39.3209 12.555 40.2278 10.7245C41.1347 8.89387 42.3787 7.48215 43.96 6.48929C45.5413 5.49643 47.3473 5 49.3781 5C51.409 5 53.215 5.49643 54.7962 6.48929C56.3775 7.48215 57.6216 8.89387 58.5285 10.7245C59.4354 12.555 59.8888 14.7269 59.8888 17.2401ZM57.0984 17.2401C57.0984 15.1768 56.7534 13.4354 56.0636 12.0159C55.3815 10.5965 54.4552 9.52216 53.2848 8.79303C52.1221 8.0639 50.8199 7.69934 49.3781 7.69934C47.9364 7.69934 46.6303 8.0639 45.4599 8.79303C44.2972 9.52216 43.3709 10.5965 42.681 12.0159C41.9989 13.4354 41.6579 15.1768 41.6579 17.2401C41.6579 19.3034 41.9989 21.0448 42.681 22.4642C43.3709 23.8837 44.2972 24.958 45.4599 25.6871C46.6303 26.4163 47.9364 26.7808 49.3781 26.7808C50.8199 26.7808 52.1221 26.4163 53.2848 25.6871C54.4552 24.958 55.3815 23.8837 56.0636 22.4642C56.7534 21.0448 57.0984 19.3034 57.0984 17.2401Z" fill="#6B7280"/>
<path d="M64.7372 29.1544V5.32578H67.6207V17.147H67.8997L78.5965 5.32578H82.3636L72.3645 16.0766L82.3636 29.1544H78.8755L70.5972 18.0778L67.6207 21.4287V29.1544H64.7372Z" fill="#6B7280"/>
<path d="M101.722 5.32578H104.606V21.1029C104.606 22.7318 104.222 24.1862 103.455 25.4661C102.695 26.7382 101.622 27.7427 100.234 28.4796C98.8466 29.2087 97.2189 29.5733 95.3508 29.5733C93.4827 29.5733 91.855 29.2087 90.4675 28.4796C89.08 27.7427 88.0026 26.7382 87.2352 25.4661C86.4756 24.1862 86.0958 22.7318 86.0958 21.1029V5.32578H88.9793V20.8702C88.9793 22.0337 89.2351 23.0693 89.7466 23.9768C90.2582 24.8766 90.9868 25.5863 91.9325 26.106C92.8859 26.618 94.0253 26.8739 95.3508 26.8739C96.6763 26.8739 97.8157 26.618 98.7691 26.106C99.7225 25.5863 100.451 24.8766 100.955 23.9768C101.467 23.0693 101.722 22.0337 101.722 20.8702V5.32578Z" fill="#6B7280"/>
<path d="M123.386 11.2829C123.247 10.1039 122.681 9.18862 121.689 8.53706C120.696 7.8855 119.479 7.55971 118.038 7.55971C116.984 7.55971 116.061 7.73036 115.271 8.07166C114.488 8.41295 113.875 8.88223 113.433 9.4795C112.999 10.0768 112.782 10.7555 112.782 11.5156C112.782 12.1517 112.934 12.6985 113.236 13.1562C113.546 13.6061 113.941 13.9823 114.422 14.2848C114.902 14.5795 115.406 14.8239 115.933 15.0178C116.46 15.204 116.945 15.3552 117.387 15.4716L119.805 16.1231C120.425 16.286 121.115 16.511 121.875 16.798C122.642 17.085 123.374 17.4767 124.072 17.9731C124.777 18.4618 125.359 19.0901 125.816 19.858C126.273 20.6259 126.502 21.5683 126.502 22.6853C126.502 23.9729 126.165 25.1364 125.491 26.1758C124.824 27.2152 123.847 28.0413 122.561 28.6541C121.282 29.2669 119.728 29.5733 117.898 29.5733C116.193 29.5733 114.716 29.2979 113.468 28.7472C112.228 28.1964 111.252 27.4285 110.538 26.4434C109.833 25.4583 109.434 24.3142 109.341 23.0111H112.317C112.395 23.9109 112.697 24.6555 113.224 25.245C113.759 25.8268 114.433 26.2611 115.247 26.5481C116.069 26.8274 116.953 26.967 117.898 26.967C118.999 26.967 119.987 26.7886 120.863 26.4318C121.739 26.0672 122.433 25.563 122.944 24.9192C123.456 24.2677 123.712 23.5075 123.712 22.6388C123.712 21.8476 123.491 21.2038 123.049 20.7073C122.607 20.2109 122.026 19.8076 121.305 19.4973C120.584 19.187 119.805 18.9155 118.968 18.6828L116.038 17.8451C114.178 17.3099 112.705 16.5459 111.62 15.553C110.535 14.5601 109.992 13.2609 109.992 11.6553C109.992 10.3211 110.352 9.1576 111.073 8.16474C111.802 7.16412 112.779 6.38845 114.003 5.83772C115.236 5.27924 116.612 5 118.131 5C119.666 5 121.03 5.27536 122.223 5.82609C123.417 6.36906 124.363 7.1137 125.06 8.06002C125.766 9.00634 126.138 10.0806 126.177 11.2829H123.386Z" fill="#6B7280"/>
<path d="M33.0143 55.341C33.0143 57.0165 32.712 58.4644 32.1074 59.6848C31.5028 60.9052 30.6734 61.8463 29.6192 62.5082C28.565 63.1702 27.361 63.5011 26.0071 63.5011C24.6532 63.5011 23.4492 63.1702 22.395 62.5082C21.3409 61.8463 20.5115 60.9052 19.9069 59.6848C19.3023 58.4644 19 57.0165 19 55.341C19 53.6656 19.3023 52.2177 19.9069 50.9973C20.5115 49.7769 21.3409 48.8358 22.395 48.1738C23.4492 47.5119 24.6532 47.181 26.0071 47.181C27.361 47.181 28.565 47.5119 29.6192 48.1738C30.6734 48.8358 31.5028 49.7769 32.1074 50.9973C32.712 52.2177 33.0143 53.6656 33.0143 55.341ZM31.154 55.341C31.154 53.9655 30.924 52.8046 30.4641 51.8583C30.0094 50.912 29.3918 50.1958 28.6116 49.7097C27.8364 49.2236 26.9683 48.9805 26.0071 48.9805C25.046 48.9805 24.1753 49.2236 23.395 49.7097C22.6198 50.1958 22.0023 50.912 21.5424 51.8583C21.0877 52.8046 20.8603 53.9655 20.8603 55.341C20.8603 56.7166 21.0877 57.8775 21.5424 58.8238C22.0023 59.7701 22.6198 60.4863 23.395 60.9724C24.1753 61.4585 25.046 61.7016 26.0071 61.7016C26.9683 61.7016 27.8364 61.4585 28.6116 60.9724C29.3918 60.4863 30.0094 59.7701 30.4641 58.8238C30.924 57.8775 31.154 56.7166 31.154 55.341Z" fill="#6B7280"/>
<path d="M35.9985 63.2839V51.3696H37.7658V53.1692H37.8898C38.1068 52.5797 38.4996 52.1013 39.068 51.7342C39.6364 51.367 40.2772 51.1834 40.9903 51.1834C41.1247 51.1834 41.2926 51.186 41.4941 51.1912C41.6957 51.1964 41.8481 51.2041 41.9515 51.2145V53.0761C41.8894 53.0606 41.7473 53.0373 41.5251 53.0063C41.3081 52.9701 41.0781 52.952 40.8353 52.952C40.2565 52.952 39.7398 53.0735 39.285 53.3165C38.8355 53.5544 38.4789 53.8854 38.2154 54.3094C37.957 54.7283 37.8278 55.2066 37.8278 55.7444V63.2839H35.9985Z" fill="#6B7280"/>
<path d="M48.5633 68C47.6796 68 46.92 67.8862 46.2844 67.6587C45.6488 67.4363 45.1191 67.1416 44.6954 66.7744C44.2768 66.4125 43.9435 66.0246 43.6955 65.6109L45.1527 64.587C45.3181 64.8042 45.5274 65.0525 45.7806 65.3317C46.0338 65.6161 46.38 65.8617 46.8192 66.0686C47.2636 66.2806 47.845 66.3866 48.5633 66.3866C49.5244 66.3866 50.3176 66.1539 50.9429 65.6885C51.5682 65.2231 51.8808 64.494 51.8808 63.5011V61.081H51.7258C51.5914 61.2982 51.4002 61.5671 51.1522 61.8877C50.9093 62.2032 50.5579 62.485 50.098 62.7332C49.6433 62.9762 49.0283 63.0978 48.2532 63.0978C47.2921 63.0978 46.4291 62.8702 45.6643 62.4152C44.9047 61.9601 44.3027 61.2982 43.8583 60.4294C43.419 59.5607 43.1994 58.5058 43.1994 57.2647C43.1994 56.0443 43.4139 54.9817 43.8428 54.0767C44.2717 53.1666 44.8685 52.4633 45.6333 51.9669C46.3981 51.4653 47.2817 51.2145 48.2842 51.2145C49.0594 51.2145 49.6743 51.3438 50.129 51.6023C50.5889 51.8557 50.9403 52.1453 51.1832 52.4711C51.4312 52.7917 51.6224 53.0554 51.7568 53.2622H51.9428V51.3696H53.7101V63.6252C53.7101 64.6491 53.4776 65.4817 53.0125 66.1229C52.5526 66.7693 51.9325 67.2424 51.1522 67.5424C50.3771 67.8475 49.5141 68 48.5633 68ZM48.5013 61.4533C49.235 61.4533 49.8551 61.2853 50.3616 60.9492C50.868 60.613 51.253 60.1295 51.5165 59.4986C51.78 58.8678 51.9118 58.1128 51.9118 57.2337C51.9118 56.3753 51.7826 55.6177 51.5243 54.961C51.2659 54.3042 50.8835 53.7897 50.3771 53.4174C49.8707 53.0451 49.2454 52.8589 48.5013 52.8589C47.7261 52.8589 47.0802 53.0554 46.5635 53.4484C46.0519 53.8414 45.6669 54.3689 45.4085 55.0308C45.1553 55.6927 45.0287 56.427 45.0287 57.2337C45.0287 58.0611 45.1579 58.7928 45.4163 59.4288C45.6798 60.0597 46.0674 60.5561 46.579 60.9181C47.0957 61.2749 47.7365 61.4533 48.5013 61.4533Z" fill="#6B7280"/>
<path d="M60.5622 63.5632C59.8078 63.5632 59.1231 63.421 58.5081 63.1365C57.8932 62.847 57.4049 62.4307 57.0431 61.8877C56.6814 61.3396 56.5006 60.6777 56.5006 59.902C56.5006 59.2194 56.6349 58.6661 56.9036 58.2421C57.1723 57.8129 57.5315 57.4767 57.981 57.2337C58.4306 56.9906 58.9267 56.8097 59.4693 56.6907C60.017 56.5666 60.5674 56.4684 61.1203 56.396C61.8438 56.3029 62.4303 56.2331 62.8798 56.1865C63.3346 56.1348 63.6653 56.0495 63.872 55.9306C64.0839 55.8116 64.1898 55.6048 64.1898 55.31V55.248C64.1898 54.4826 63.9805 53.888 63.5619 53.4639C63.1485 53.0399 62.5207 52.8279 61.6784 52.8279C60.8051 52.8279 60.1204 53.0192 59.6243 53.4019C59.1282 53.7845 58.7794 54.1931 58.5779 54.6274L56.8416 54.0069C57.1517 53.2829 57.5651 52.7193 58.0818 52.3159C58.6037 51.9074 59.1722 51.623 59.7871 51.4627C60.4072 51.2972 61.017 51.2145 61.6164 51.2145C61.9988 51.2145 62.438 51.261 62.9341 51.3541C63.4353 51.442 63.9185 51.6256 64.3836 51.9048C64.8538 52.1841 65.244 52.6055 65.554 53.1692C65.8641 53.7328 66.0191 54.4878 66.0191 55.4341V63.2839H64.1898V61.6705H64.0968C63.9728 61.9291 63.7661 62.2057 63.4767 62.5005C63.1873 62.7952 62.8023 63.046 62.3217 63.2529C61.8412 63.4597 61.2547 63.5632 60.5622 63.5632ZM60.8413 61.9187C61.5647 61.9187 62.1745 61.7765 62.6706 61.4921C63.1718 61.2077 63.549 60.8406 63.8022 60.3907C64.0606 59.9408 64.1898 59.4676 64.1898 58.9712V57.2957C64.1123 57.3888 63.9418 57.4741 63.6782 57.5517C63.4198 57.6241 63.1201 57.6887 62.7791 57.7456C62.4432 57.7973 62.115 57.8439 61.7947 57.8852C61.4794 57.9214 61.2237 57.9525 61.0273 57.9783C60.5519 58.0404 60.1075 58.1412 59.6941 58.2808C59.2858 58.4153 58.9551 58.6196 58.7019 58.8936C58.4539 59.1625 58.3299 59.5297 58.3299 59.9951C58.3299 60.6311 58.565 61.112 59.0352 61.4378C59.5106 61.7584 60.1126 61.9187 60.8413 61.9187Z" fill="#6B7280"/>
<path d="M71.1872 56.1167V63.2839H69.3579V51.3696H71.1252V53.2312H71.2803C71.5593 52.6262 71.983 52.1401 72.5515 51.773C73.1199 51.4006 73.8537 51.2145 74.7528 51.2145C75.5589 51.2145 76.2643 51.38 76.8689 51.7109C77.4735 52.0367 77.9437 52.5331 78.2796 53.2002C78.6155 53.8621 78.7835 54.6998 78.7835 55.7134V63.2839H76.9542V55.8375C76.9542 54.9015 76.7113 54.1724 76.2256 53.6501C75.7398 53.1226 75.0732 52.8589 74.2257 52.8589C73.6418 52.8589 73.1199 52.9856 72.66 53.239C72.2052 53.4924 71.8461 53.8621 71.5826 54.3482C71.319 54.8343 71.1872 55.4238 71.1872 56.1167Z" fill="#6B7280"/>
<path d="M82.1262 63.2839V51.3696H83.9555V63.2839H82.1262ZM83.0563 49.3839C82.6998 49.3839 82.3923 49.2624 82.1339 49.0193C81.8807 48.7763 81.7541 48.4841 81.7541 48.1428C81.7541 47.8015 81.8807 47.5094 82.1339 47.2663C82.3923 47.0233 82.6998 46.9017 83.0563 46.9017C83.4129 46.9017 83.7178 47.0233 83.971 47.2663C84.2294 47.5094 84.3586 47.8015 84.3586 48.1428C84.3586 48.4841 84.2294 48.7763 83.971 49.0193C83.7178 49.2624 83.4129 49.3839 83.0563 49.3839Z" fill="#6B7280"/>
<path d="M86.9649 63.2839V61.8877L93.724 53.2002V53.0761H87.1819V51.3696H96.0804V52.8279L89.5073 61.4533V61.5774H96.2974V63.2839H86.9649Z" fill="#6B7280"/>
<path d="M102.619 63.5632C101.864 63.5632 101.179 63.421 100.564 63.1365C99.9495 62.847 99.4612 62.4307 99.0995 61.8877C98.7378 61.3396 98.5569 60.6777 98.5569 59.902C98.5569 59.2194 98.6913 58.6661 98.96 58.2421C99.2287 57.8129 99.5878 57.4767 100.037 57.2337C100.487 56.9906 100.983 56.8097 101.526 56.6907C102.073 56.5666 102.624 56.4684 103.177 56.396C103.9 56.3029 104.487 56.2331 104.936 56.1865C105.391 56.1348 105.722 56.0495 105.928 55.9306C106.14 55.8116 106.246 55.6048 106.246 55.31V55.248C106.246 54.4826 106.037 53.888 105.618 53.4639C105.205 53.0399 104.577 52.8279 103.735 52.8279C102.861 52.8279 102.177 53.0192 101.681 53.4019C101.185 53.7845 100.836 54.1931 100.634 54.6274L98.898 54.0069C99.208 53.2829 99.6214 52.7193 100.138 52.3159C100.66 51.9074 101.229 51.623 101.843 51.4627C102.464 51.2972 103.073 51.2145 103.673 51.2145C104.055 51.2145 104.494 51.261 104.99 51.3541C105.492 51.442 105.975 51.6256 106.44 51.9048C106.91 52.1841 107.3 52.6055 107.61 53.1692C107.92 53.7328 108.075 54.4878 108.075 55.4341V63.2839H106.246V61.6705H106.153C106.029 61.9291 105.822 62.2057 105.533 62.5005C105.244 62.7952 104.859 63.046 104.378 63.2529C103.898 63.4597 103.311 63.5632 102.619 63.5632ZM102.898 61.9187C103.621 61.9187 104.231 61.7765 104.727 61.4921C105.228 61.2077 105.605 60.8406 105.859 60.3907C106.117 59.9408 106.246 59.4676 106.246 58.9712V57.2957C106.169 57.3888 105.998 57.4741 105.735 57.5517C105.476 57.6241 105.176 57.6887 104.835 57.7456C104.5 57.7973 104.171 57.8439 103.851 57.8852C103.536 57.9214 103.28 57.9525 103.084 57.9783C102.608 58.0404 102.164 58.1412 101.75 58.2808C101.342 58.4153 101.011 58.6196 100.758 58.8936C100.51 59.1625 100.386 59.5297 100.386 59.9951C100.386 60.6311 100.621 61.112 101.092 61.4378C101.567 61.7584 102.169 61.9187 102.898 61.9187Z" fill="#6B7280"/>
<path d="M116.251 63.5321C115.135 63.5321 114.174 63.2684 113.368 62.741C112.561 62.2135 111.941 61.4869 111.507 60.5613C111.073 59.6357 110.856 58.5782 110.856 57.3888C110.856 56.1788 111.078 55.1109 111.523 54.1853C111.972 53.2545 112.598 52.528 113.399 52.0057C114.205 51.4782 115.145 51.2145 116.22 51.2145C117.057 51.2145 117.812 51.3696 118.483 51.6799C119.155 51.9902 119.706 52.4245 120.134 52.983C120.563 53.5415 120.829 54.1931 120.933 54.9377H119.104C118.964 54.3947 118.654 53.9138 118.173 53.495C117.698 53.0709 117.057 52.8589 116.251 52.8589C115.538 52.8589 114.913 53.0451 114.375 53.4174C113.843 53.7845 113.427 54.3042 113.127 54.9765C112.833 55.6436 112.685 56.427 112.685 57.3268C112.685 58.2472 112.83 59.0488 113.12 59.7313C113.414 60.4139 113.828 60.944 114.36 61.3215C114.897 61.699 115.528 61.8877 116.251 61.8877C116.726 61.8877 117.158 61.805 117.546 61.6395C117.933 61.474 118.261 61.2361 118.53 60.9259C118.799 60.6156 118.99 60.2433 119.104 59.8089H120.933C120.829 60.5122 120.574 61.1457 120.165 61.7093C119.762 62.2678 119.228 62.7125 118.561 63.0435C117.9 63.3692 117.13 63.5321 116.251 63.5321Z" fill="#6B7280"/>
<path d="M128.599 63.5321C127.452 63.5321 126.462 63.2788 125.63 62.772C124.803 62.26 124.165 61.5464 123.716 60.6311C123.271 59.7107 123.049 58.6402 123.049 57.4198C123.049 56.1995 123.271 55.1239 123.716 54.1931C124.165 53.2571 124.79 52.528 125.591 52.0057C126.397 51.4782 127.338 51.2145 128.413 51.2145C129.033 51.2145 129.645 51.3179 130.25 51.5247C130.854 51.7316 131.405 52.0677 131.901 52.5331C132.397 52.9934 132.792 53.6035 133.087 54.3637C133.381 55.1239 133.529 56.0598 133.529 57.1716V57.9473H124.351V56.3649H131.668C131.668 55.6927 131.534 55.0928 131.265 54.5654C131.002 54.0379 130.624 53.6216 130.134 53.3165C129.648 53.0114 129.074 52.8589 128.413 52.8589C127.684 52.8589 127.054 53.0399 126.521 53.4019C125.994 53.7587 125.589 54.2241 125.305 54.7981C125.02 55.3721 124.878 55.9874 124.878 56.6442V57.6991C124.878 58.5989 125.033 59.3616 125.343 59.9873C125.659 60.6079 126.095 61.081 126.653 61.4068C127.211 61.7274 127.86 61.8877 128.599 61.8877C129.079 61.8877 129.513 61.8205 129.901 61.686C130.294 61.5464 130.632 61.3396 130.916 61.0655C131.201 60.7863 131.42 60.4398 131.575 60.0261L133.343 60.5225C133.157 61.1224 132.844 61.6498 132.405 62.1049C131.965 62.5548 131.423 62.9064 130.777 63.1598C130.131 63.408 129.405 63.5321 128.599 63.5321Z" fill="#6B7280"/>
<path d="M150.884 54.0379L149.24 54.5033C149.137 54.2293 148.985 53.9629 148.783 53.7044C148.587 53.4407 148.318 53.2235 147.977 53.0528C147.636 52.8822 147.199 52.7968 146.667 52.7968C145.938 52.7968 145.331 52.9649 144.845 53.301C144.365 53.632 144.125 54.0534 144.125 54.5654C144.125 55.0204 144.29 55.3798 144.621 55.6436C144.951 55.9073 145.468 56.1271 146.171 56.3029L147.938 56.7373C149.003 56.9958 149.796 57.3914 150.318 57.924C150.84 58.4515 151.101 59.1315 151.101 59.964C151.101 60.6466 150.904 61.2568 150.512 61.7946C150.124 62.3324 149.581 62.7565 148.884 63.0667C148.186 63.377 147.375 63.5321 146.45 63.5321C145.236 63.5321 144.231 63.2684 143.435 62.741C142.639 62.2135 142.135 61.443 141.923 60.4294L143.659 59.9951C143.825 60.6363 144.137 61.1172 144.597 61.4378C145.062 61.7584 145.67 61.9187 146.419 61.9187C147.272 61.9187 147.949 61.7378 148.45 61.3758C148.956 61.0086 149.209 60.5691 149.209 60.0571C149.209 59.6434 149.065 59.297 148.775 59.0177C148.486 58.7333 148.042 58.5213 147.442 58.3817L145.458 57.9163C144.367 57.6577 143.566 57.257 143.055 56.714C142.548 56.1658 142.295 55.4807 142.295 54.6585C142.295 53.9862 142.484 53.3915 142.861 52.8744C143.244 52.3573 143.763 51.9514 144.419 51.6566C145.081 51.3619 145.83 51.2145 146.667 51.2145C147.845 51.2145 148.77 51.473 149.442 51.9902C150.119 52.5073 150.599 53.1899 150.884 54.0379Z" fill="#6B7280"/>
<path d="M158.691 63.5321C157.616 63.5321 156.673 63.2762 155.862 62.7642C155.056 62.2523 154.425 61.5361 153.971 60.6156C153.521 59.6951 153.296 58.6196 153.296 57.3888C153.296 56.1477 153.521 55.0644 153.971 54.1388C154.425 53.2131 155.056 52.4943 155.862 51.9824C156.673 51.4704 157.616 51.2145 158.691 51.2145C159.766 51.2145 160.706 51.4704 161.513 51.9824C162.324 52.4943 162.954 53.2131 163.404 54.1388C163.859 55.0644 164.086 56.1477 164.086 57.3888C164.086 58.6196 163.859 59.6951 163.404 60.6156C162.954 61.5361 162.324 62.2523 161.513 62.7642C160.706 63.2762 159.766 63.5321 158.691 63.5321ZM158.691 61.8877C159.508 61.8877 160.179 61.6783 160.706 61.2594C161.234 60.8406 161.624 60.2898 161.877 59.6072C162.13 58.9246 162.257 58.1852 162.257 57.3888C162.257 56.5925 162.13 55.8504 161.877 55.1626C161.624 54.4749 161.234 53.919 160.706 53.495C160.179 53.0709 159.508 52.8589 158.691 52.8589C157.875 52.8589 157.203 53.0709 156.676 53.495C156.149 53.919 155.759 54.4749 155.505 55.1626C155.252 55.8504 155.126 56.5925 155.126 57.3888C155.126 58.1852 155.252 58.9246 155.505 59.6072C155.759 60.2898 156.149 60.8406 156.676 61.2594C157.203 61.6783 157.875 61.8877 158.691 61.8877Z" fill="#6B7280"/>
<path d="M174.382 58.4127V51.3696H176.211V63.2839H174.382V61.2672H174.258C173.979 61.8722 173.544 62.3867 172.955 62.8108C172.366 63.2296 171.622 63.4391 170.723 63.4391C169.979 63.4391 169.317 63.2762 168.739 62.9504C168.16 62.6194 167.705 62.123 167.374 61.4611C167.044 60.794 166.878 59.9537 166.878 58.9402V51.3696H168.708V58.8161C168.708 59.6848 168.951 60.3777 169.436 60.8949C169.927 61.412 170.552 61.6705 171.312 61.6705C171.767 61.6705 172.229 61.5542 172.7 61.3215C173.175 61.0888 173.573 60.732 173.893 60.251C174.219 59.7701 174.382 59.1573 174.382 58.4127Z" fill="#6B7280"/>
<path d="M184.739 51.3696V52.921H178.569V51.3696H184.739ZM180.367 48.5151H182.197V59.871C182.197 60.3881 182.272 60.7759 182.422 61.0345C182.577 61.2879 182.773 61.4585 183.011 61.5464C183.254 61.6292 183.509 61.6705 183.778 61.6705C183.98 61.6705 184.145 61.6602 184.274 61.6395C184.403 61.6136 184.507 61.593 184.584 61.5774L184.956 63.2219C184.832 63.2684 184.659 63.3149 184.437 63.3615C184.215 63.4132 183.933 63.4391 183.592 63.4391C183.075 63.4391 182.569 63.3279 182.073 63.1055C181.582 62.8832 181.174 62.5444 180.848 62.0894C180.528 61.6343 180.367 61.0603 180.367 60.3674V48.5151Z" fill="#6B7280"/>
<path d="M192.355 63.5321C191.208 63.5321 190.218 63.2788 189.386 62.772C188.559 62.26 187.921 61.5464 187.472 60.6311C187.027 59.7107 186.805 58.6402 186.805 57.4198C186.805 56.1995 187.027 55.1239 187.472 54.1931C187.921 53.2571 188.546 52.528 189.347 52.0057C190.153 51.4782 191.094 51.2145 192.169 51.2145C192.789 51.2145 193.401 51.3179 194.006 51.5247C194.61 51.7316 195.161 52.0677 195.657 52.5331C196.153 52.9934 196.548 53.6035 196.843 54.3637C197.137 55.1239 197.285 56.0598 197.285 57.1716V57.9473H188.107V56.3649H195.424C195.424 55.6927 195.29 55.0928 195.021 54.5654C194.758 54.0379 194.38 53.6216 193.89 53.3165C193.404 53.0114 192.83 52.8589 192.169 52.8589C191.44 52.8589 190.81 53.0399 190.277 53.4019C189.75 53.7587 189.345 54.2241 189.061 54.7981C188.776 55.3721 188.634 55.9874 188.634 56.6442V57.6991C188.634 58.5989 188.789 59.3616 189.099 59.9873C189.414 60.6079 189.851 61.081 190.409 61.4068C190.967 61.7274 191.616 61.8877 192.355 61.8877C192.835 61.8877 193.269 61.8205 193.657 61.686C194.05 61.5464 194.388 61.3396 194.672 61.0655C194.957 60.7863 195.176 60.4398 195.331 60.0261L197.099 60.5225C196.913 61.1224 196.6 61.6498 196.161 62.1049C195.721 62.5548 195.179 62.9064 194.533 63.1598C193.887 63.408 193.161 63.5321 192.355 63.5321ZM190.463 46.5915L192.076 48.7634L193.688 46.5915H195.424V46.7156L192.913 49.9424H191.239L188.727 46.7156V46.5915H190.463Z" fill="#6B7280"/>
<path d="M199.726 63.2839V61.8877L206.485 53.2002V53.0761H199.943V51.3696H208.842V52.8279L202.269 61.4533V61.5774H209.059V63.2839H199.726ZM202.672 46.5915L204.284 48.7634L205.896 46.5915H207.633V46.7156L205.121 49.9424H203.447L200.935 46.7156V46.5915H202.672Z" fill="#6B7280"/>
<path d="M211.876 63.2839V51.3696H213.706V63.2839H211.876ZM211.969 49.7562L213.861 46.1571H216L213.582 49.7562H211.969Z" fill="#6B7280"/>
</svg>
