<svg width="234" height="74" viewBox="0 0 234 74" fill="none" xmlns="http://www.w3.org/2000/svg">
<path d="M184.166 7C184.166 7 175.991 20.6697 174.011 25.5843C172.031 30.499 174.534 39.9346 184.491 40.0554C194.449 40.1762 196.237 30.6046 194.319 25.5843C192.401 20.564 184.166 7 184.166 7ZM156.783 7.86844C156.783 7.86844 153.5 13.2462 149.627 19.8511C150.113 19.9372 150.595 20.0306 151.068 20.1465C153.223 20.6582 155.289 21.5116 157.129 22.7356L157.142 22.7456C159.288 24.1813 161.119 26.1373 162.362 28.4172C163.775 30.98 164.289 33.8172 164.289 36.6875C164.289 39.0363 163.857 41.3875 162.962 43.5619C162.11 45.6566 160.843 47.5953 159.237 49.1977C157.343 51.0877 155.031 52.55 152.518 53.4814L152.492 53.4911L152.467 53.4993C150.65 54.1555 148.417 54.474 146.4 54.6258V65.4511C149.272 66.9908 153.113 67.9473 157.393 67.9979C175.98 68.2175 179.319 50.8096 175.739 41.6773C172.158 32.5451 156.783 7.86844 156.783 7.86844ZM40 23.9481V62.5841H48.6273C52.036 62.5841 53.2555 62.3316 55.306 61.8731C57.4762 61.3919 59.4592 60.6036 61.2365 59.5081C63.8064 57.9205 65.8676 55.6718 67.3865 52.8317C68.9308 49.9746 69.7028 46.7783 69.7028 43.3034C69.7028 39.6158 68.9757 36.3655 67.4874 33.6046C66.0118 30.8674 63.9293 28.6491 61.2902 27.003L61.285 27.0013C59.7107 26.0303 57.8235 25.2918 55.628 24.7645L55.6198 24.7628C53.5159 24.2381 52.1496 23.948 48.528 23.948L40 23.9481ZM75.4933 23.9481V62.5841H82.4469V48.0498H86.9687L98.3482 62.5841H107.273L94.6234 45.8957C96.5293 44.9618 98.1887 43.7765 99.386 42.1834L99.3893 42.1801C100.864 40.1996 101.588 37.7406 101.588 34.9308C101.588 32.851 101.184 31.0522 100.31 29.5904C99.486 28.1687 98.324 26.985 96.8697 26.0712L96.8664 26.0696C95.5714 25.2618 94.1162 24.7082 92.5332 24.4009C90.9503 24.0935 89.049 23.948 86.7931 23.948L75.4933 23.9481ZM108.978 23.9481V29.7576H113.776V56.7746H108.978V62.5841H126.039V56.7746H121.242V29.7576H126.039V23.9481H108.978ZM133.401 23.9481V62.5841H140.354V48.9588H144.185C146.892 48.9588 149.179 48.6432 151.06 47.9637L151.064 47.9621L151.069 47.9604C152.923 47.2731 154.553 46.2382 155.921 44.873C157.037 43.7596 157.904 42.4394 158.51 40.9432C159.137 39.4221 159.447 37.7765 159.447 36.0362C159.447 33.7845 159.041 31.8445 158.162 30.2575C157.327 28.7187 156.126 27.424 154.607 26.4072C153.318 25.5497 151.845 24.9292 150.218 24.5437C148.58 24.1395 146.639 23.948 144.382 23.948L133.401 23.9481ZM148.868 24.0569C148.89 24.0609 148.911 24.0713 148.933 24.0763C148.949 24.0804 148.967 24.078 148.983 24.0814L148.868 24.0569ZM48.4256 30.1764C49.8902 30.1997 51.3347 30.363 52.7816 30.6699L52.7866 30.6715L52.7916 30.6732C54.3049 30.963 55.7279 31.4861 57.0744 32.2494C58.8992 33.2878 60.2282 34.6684 61.1392 36.4568C62.0468 38.2387 62.5266 40.4865 62.5266 43.2305C62.5266 45.9672 62.0836 48.1829 61.2563 49.9084C60.429 51.634 59.2153 53.0016 57.5461 54.0671C56.1974 54.9291 54.7188 55.5164 53.0844 55.8364C51.082 56.3978 49.0104 56.3332 46.9538 56.3332V30.1992C47.4474 30.1757 47.9374 30.1686 48.4256 30.1764ZM82.4469 30.199H87.1379C88.3976 30.199 89.4723 30.2952 90.3504 30.4734L90.3601 30.475L90.3683 30.4767C91.2187 30.6349 91.9111 30.9137 92.4845 31.2996L92.4911 31.3031L92.4977 31.3081C93.2113 31.7737 93.6617 32.2988 93.9356 32.92L93.9406 32.9313L93.9472 32.9426C94.2505 33.5874 94.4141 34.3522 94.4141 35.2752C94.4141 36.5592 94.2404 37.5695 93.9472 38.3009L93.9456 38.3059L93.9439 38.3125C93.658 39.0461 93.2131 39.6938 92.5792 40.2847C91.911 40.8959 91.1136 41.3143 90.1215 41.5557C89.0734 41.7941 87.8063 41.9225 86.3267 41.9225H82.4473L82.4469 30.199ZM140.354 30.199H144.136C145.626 30.199 146.831 30.314 147.718 30.5172L147.728 30.5188L147.737 30.5205C148.642 30.7099 149.416 31.0248 150.088 31.4571C150.843 31.9515 151.373 32.5519 151.734 33.3125C152.099 34.0815 152.297 35.0187 152.297 36.158C152.297 37.1339 152.149 37.9792 151.872 38.7129L151.869 38.7211L151.867 38.7293C151.615 39.4315 151.165 40.1294 150.483 40.8265C149.851 41.4561 149.022 41.9349 147.932 42.2549C146.842 42.5588 145.327 42.7305 143.422 42.7305H140.354L140.354 30.199ZM146.708 36.6027V37.1076C146.716 37.0149 146.729 36.9435 146.729 36.8105C146.729 36.6328 146.716 36.6539 146.708 36.6027ZM158.362 41.836C158.356 41.851 158.347 41.863 158.341 41.8782C158.333 41.8961 158.333 41.9153 158.326 41.9334L158.362 41.836Z" fill="#6B7280"/>
</svg>
