<svg width="234" height="74" viewBox="0 0 234 74" fill="none" xmlns="http://www.w3.org/2000/svg">
<path d="M31.9906 5.34825C31.2466 5.89797 30.1792 6.83576 28.8853 8.22623C26.9769 10.2311 25.1655 13.0443 24.8744 14.4025C24.3245 17.1187 24.1627 20.3201 24.9714 23.6507C25.1655 24.4915 25.7154 24.9119 26.3946 24.9119H39.6567C40.336 24.9119 40.8858 24.4915 41.0799 23.6507C41.8886 20.3201 41.7269 17.1187 41.177 14.4025C40.9182 13.0443 39.0745 10.2311 37.166 8.22623C35.8722 6.8681 34.7724 5.93031 34.0608 5.34825C33.3815 4.8632 32.7022 4.83086 31.9906 5.34825Z" fill="#6B7280"/>
<path d="M14.5882 24.4915C7.43967 24.4915 4.75492 30.7971 4.75492 35.1302C4.75492 40.5627 8.60414 45.6395 11.3536 46.836C12.2269 47.224 12.7445 46.9977 12.421 45.9629C11.8711 44.0227 11.9682 41.9532 12.8415 40.5304C14.1677 38.4608 15.7527 38.2021 17.6611 38.0404C18.5021 37.9758 18.7932 37.7171 18.7932 36.8763V32.8343C18.7932 31.5732 18.955 31.3145 19.6989 30.5707C19.6989 30.5707 22.1249 28.1455 22.7395 27.5311C23.2894 26.9814 23.063 26.561 22.6101 26.3023C21.4457 25.5909 17.7905 24.4915 14.5882 24.4915Z" fill="#6B7280"/>
<path d="M43.3765 26.3347C42.9237 26.5933 42.6972 27.0137 43.2471 27.5634C43.8617 28.1778 46.2877 30.6031 46.2877 30.6031C47.0317 31.3468 47.1934 31.6055 47.1934 32.8666V36.9087C47.1934 37.7494 47.5169 38.0081 48.3255 38.0728C50.234 38.2345 51.7866 38.4608 53.1451 40.5627C54.0508 41.9532 54.1479 44.055 53.5656 45.9952C53.2745 47.03 53.7597 47.2564 54.6331 46.8683C57.3825 45.6719 61.2317 40.595 61.2317 35.1625C61.2317 30.8294 58.547 24.5238 51.3984 24.5238C48.2285 24.4915 44.5733 25.5909 43.3765 26.3347Z" fill="#6B7280"/>
<path d="M12.1622 54.8231C5.04604 55.2758 0 49.2936 0 43.4083C0 41.1771 0.323463 39.9806 0.905698 38.7519C1.42324 37.6847 2.00547 36.9733 2.32894 36.9733C2.68475 36.9733 2.78179 37.4584 2.81413 37.7818C4.20503 44.9928 9.28341 49.1642 12.7445 49.2289C13.7472 49.2612 15.0087 49.0025 15.1058 48.5175C15.2675 47.8061 14.0383 46.3186 14.0383 43.473C14.0383 42.3412 14.5559 40.2393 17.6935 40.1423C20.4753 40.0453 21.8338 42.6322 21.8338 44.9605C21.8985 49.7463 18.3727 54.4351 12.1622 54.8231Z" fill="#6B7280"/>
<path d="M2.84648 32.8019C3.42872 28.5982 5.79001 25.4616 8.41006 23.9741C12.6151 21.5812 16.7878 22.4866 19.6989 23.1334C20.1194 23.2304 20.4753 23.1657 20.6046 22.907C20.7017 22.6807 20.637 22.4543 20.2812 22.0663C18.9226 20.6111 15.7527 17.4745 15.3645 17.1511C14.3941 16.3427 12.8092 15.89 11.58 15.89C4.46381 15.89 0 21.2902 0 27.3048C0 28.8893 0.452848 30.9265 0.938044 32.0582C1.39089 33.1253 1.87609 34.0631 2.26425 34.0631C2.71709 34.0631 2.74944 33.4163 2.84648 32.8019Z" fill="#6B7280"/>
<path d="M43.6676 21.1931C43.4736 21.0315 43.4089 20.7404 43.4736 20.2877C43.7647 17.2804 43.4736 14.3055 42.859 12.915C42.0827 11.1365 40.2389 8.51723 38.7833 6.99741C36.9072 5.02488 36.228 4.47516 35.3546 3.82843C35.1282 3.66675 34.6753 3.40806 34.6753 3.1817C34.6753 2.92301 35.0312 2.69666 35.484 2.4703C36.2927 2.08226 37.4895 1.56488 39.6567 1.4032C42.2444 1.17684 45.9319 1.72656 48.746 5.31591C50.331 7.32078 50.5251 9.74602 50.5251 11.3952C50.5251 13.3677 50.2016 15.1139 49.2636 16.1486C47.8727 17.6685 44.9291 20.6111 44.541 20.9345C44.3469 21.0961 43.9264 21.3872 43.6676 21.1931Z" fill="#6B7280"/>
<path d="M22.3513 21.1931C22.5454 21.0315 22.6101 20.7404 22.5454 20.2877C22.2543 17.2804 22.5454 14.3055 23.16 12.915C23.9363 11.1365 25.7801 8.51723 27.2357 6.99741C29.1117 5.02488 29.791 4.47516 30.6644 3.82843C30.8908 3.66675 31.3436 3.40806 31.3436 3.1817C31.3436 2.92301 30.9878 2.69666 30.535 2.4703C29.7263 2.08226 28.5295 1.56488 26.3623 1.4032C23.7746 1.17684 20.0871 1.72656 17.273 5.31591C15.7203 7.28844 15.5263 9.74602 15.5263 11.3952C15.5263 13.3677 15.8497 15.1139 16.7878 16.1486C18.1787 17.6685 21.1222 20.6111 21.5103 20.9345C21.6721 21.0961 22.0926 21.3872 22.3513 21.1931Z" fill="#6B7280"/>
<path d="M53.8567 54.8231C60.9729 55.2758 66.019 49.2936 66.019 43.4083C66.019 41.1771 65.6955 39.9806 65.1133 38.7519C64.5957 37.6847 64.0135 36.9733 63.69 36.9733C63.3342 36.9733 63.2372 37.4584 63.2048 37.7818C61.814 44.9928 56.7356 49.1642 53.2745 49.2289C52.2718 49.2612 51.0103 49.0025 50.9132 48.5175C50.7515 47.8061 51.9807 46.3186 51.9807 43.473C51.9807 42.3412 51.4631 40.2393 48.3255 40.1423C45.5437 40.0453 44.1852 42.6322 44.1852 44.9605C44.1205 49.7463 47.6462 54.4351 53.8567 54.8231Z" fill="#6B7280"/>
<path d="M63.1725 32.8019C62.5903 28.5982 60.229 25.4616 57.6089 23.9741C53.4039 21.5812 49.2312 22.4866 46.32 23.1334C45.8995 23.2304 45.5437 23.1657 45.4143 22.907C45.3173 22.6807 45.382 22.4543 45.7378 22.0663C47.0964 20.6111 50.2663 17.4745 50.6545 17.1511C51.6248 16.3427 53.2098 15.89 54.439 15.89C61.5552 15.89 66.019 21.2902 66.019 27.3048C66.019 28.8893 65.5661 30.9265 65.0809 32.0582C64.6281 33.1253 64.1429 34.0631 63.7547 34.0631C63.3019 34.0631 63.2695 33.4163 63.1725 32.8019Z" fill="#6B7280"/>
<path d="M38.5569 57.022C40.1419 55.8255 41.0152 55.0171 42.3414 53.659C42.956 53.0446 43.6676 52.9476 44.4116 53.659C45.4467 54.6614 46.7082 55.4698 48.5519 55.5992C49.2959 55.6639 49.6841 55.4375 50.2016 55.6639C50.4604 55.7932 50.7191 56.1489 50.7515 56.7633C50.8162 59.1885 49.6517 62.0341 46.126 62.6485C43.8294 63.0689 41.5328 62.3575 40.4007 61.2904C39.6243 60.5467 38.751 59.7383 38.2658 59.0592C37.7483 58.4448 37.7483 57.6364 38.5569 57.022Z" fill="#6B7280"/>
<path d="M27.4621 57.022C25.8771 55.8255 25.0038 55.0171 23.6775 53.659C23.063 53.0446 22.3513 52.9476 21.6074 53.659C20.5723 54.6614 19.3108 55.4698 17.467 55.5992C16.7231 55.6639 16.3349 55.4375 15.8174 55.6639C15.5586 55.7932 15.2998 56.1489 15.2675 56.7633C15.2028 59.1885 16.3673 62.0341 19.893 62.6485C22.1896 63.0689 24.4862 62.3575 25.6183 61.2904C26.3946 60.5467 27.268 59.7383 27.7532 59.0592C28.3031 58.4448 28.2707 57.6364 27.4621 57.022Z" fill="#6B7280"/>
<path d="M33.0257 59.8353C33.9314 59.8353 34.643 59.2855 35.2576 59.1885C35.7751 59.1239 36.1309 59.2855 36.5838 59.7706C37.2631 60.4497 38.2658 61.5491 38.9451 62.3575C39.4303 62.9396 40.0772 63.9097 39.1715 66.2056C38.0717 69.0188 34.1578 72.7052 32.9933 72.7052C31.8288 72.7052 27.9149 69.0188 26.8151 66.2056C25.9094 63.9097 26.5887 62.9396 27.0416 62.3575C27.6885 61.5491 28.6912 60.4497 29.4028 59.7706C29.888 59.2855 30.2115 59.1239 30.729 59.1885C31.376 59.2855 32.12 59.8353 33.0257 59.8353Z" fill="#6B7280"/>
<path d="M32.8316 32.2199C32.4111 32.2199 31.9259 32.4462 31.7641 32.8019C31.9582 32.6726 32.2493 32.6726 32.3464 32.8666C32.4111 32.9959 32.314 33.1253 32.2817 33.1576C32.217 33.2546 32.5405 33.4163 32.8316 33.384C33.1874 33.3193 33.4785 33.1253 33.5109 32.8019C33.5756 32.5756 33.4138 32.2199 32.8316 32.2199Z" fill="#6B7280"/>
<path d="M45.2526 31.6055C44.8968 31.2498 42.3091 28.6629 41.1446 27.4988C40.2066 26.561 39.9155 26.367 38.6863 26.367H27.3974C26.1682 26.367 25.8771 26.561 24.9391 27.4988C23.7746 28.6629 21.1869 31.2498 20.8311 31.6055C20.3782 32.0582 20.3135 32.2522 20.3135 33.0606V37.329C20.3135 38.0081 20.5723 38.3638 21.0251 38.6872C22.7072 39.819 23.9363 41.8238 23.9363 44.7341C23.9363 46.5126 23.3541 47.8707 22.9983 49.0349C22.8042 49.6493 22.9012 50.1666 23.4835 50.9751C24.1627 51.9775 27.4621 55.9225 31.6024 57.7334C32.217 57.9921 32.6375 58.1538 33.058 58.1538C33.4785 58.1538 33.899 57.9921 34.5136 57.7334C38.654 55.9225 41.9533 51.9451 42.6326 50.9751C43.2148 50.1343 43.3118 49.6493 43.1177 49.0349C42.7619 47.8707 42.1797 46.5126 42.1797 44.7341C42.1797 41.8238 43.4089 39.819 45.0909 38.6872C45.5437 38.3961 45.8025 38.0404 45.8025 37.329V33.0606C45.7378 32.2522 45.7055 32.0905 45.2526 31.6055ZM40.9505 42.5352C40.8212 42.6322 40.1419 42.1148 39.8508 42.3089C39.592 42.4705 40.1419 43.1173 40.336 44.1844C40.6918 46.0276 38.4599 49.5199 35.0958 52.0098C33.899 52.8829 33.2521 53.1093 32.961 53.1093C32.6699 53.1093 32.0229 52.8182 30.8261 52.0098C28.6589 50.5223 26.2329 48.3558 26.4593 46.642C26.524 46.1569 26.7505 45.7689 26.2329 45.8659C25.9741 45.8982 25.4889 46.1892 25.3919 46.1892C25.3272 46.1892 25.2625 46.0922 25.2302 45.9952C24.9067 44.8635 25.6507 42.7939 28.7559 41.9532C31.2789 41.2741 32.1846 40.5627 32.1846 40.3363C32.1846 40.207 31.9906 39.9806 31.8612 39.8836C31.0525 39.2692 30.0174 39.5926 28.8206 39.9483C27.9796 40.207 27.4621 39.9806 27.268 39.6896C27.1063 39.3986 27.2033 39.0752 27.2033 39.0752C26.7828 39.1076 26.2976 39.0752 26.0388 39.0752C25.2302 39.0105 24.5509 38.7519 24.0657 38.2345C23.3217 37.4584 23.3864 36.2296 24.0981 35.5505C24.6479 35.0331 24.745 35.4859 24.8744 35.9386C25.1331 36.8763 25.9094 37.9111 27.4297 37.9111C28.4648 37.9111 28.95 37.4907 29.7587 37.329C31.1819 37.038 31.4407 37.3937 31.5701 37.135C31.6348 36.9733 31.4407 36.6176 31.0849 36.3913C30.535 36.0679 29.8881 36.0356 29.0794 36.0679C28.7559 36.1003 28.2707 36.1003 28.1413 36.6176C28.0767 36.844 28.012 37.1027 27.9149 37.135C27.6885 37.1674 27.4944 36.747 27.268 36.2296C26.33 36.0032 26.2006 34.3541 25.7477 33.6103C25.3596 32.9636 25.4566 32.4786 26.2006 32.3492C26.9122 32.2199 28.7559 32.1875 30.2115 32.1552C31.1172 32.1552 31.4083 31.7995 31.7965 31.5408C32.12 31.3468 32.5405 31.1528 33.058 31.0235C33.5756 30.8941 33.8667 30.8618 34.546 30.8294C34.8694 30.8294 34.9018 30.6354 35.1929 30.2474C35.5487 29.7623 36.0015 29.3743 36.6485 29.3096C36.9396 29.2773 36.6808 29.8917 36.7455 30.215C36.8102 30.6677 37.1337 30.4091 37.4248 30.0857C38.1364 29.2449 38.6863 28.7922 39.3979 28.8892C39.4303 28.8892 39.495 28.9216 39.5273 28.9862C39.689 29.342 39.9155 30.8294 39.4303 32.2522C39.3332 32.5432 39.2038 32.8666 39.1391 33.0283C39.0745 33.19 39.2038 33.8367 39.2685 34.0307C39.6567 35.6152 40.336 36.3913 40.9182 38.3315C41.4357 40.3687 41.3064 42.3089 40.9505 42.5352Z" fill="#6B7280"/>
<path d="M102.185 5.66702C102.606 5.74359 102.836 5.70531 102.913 5.24581L103.526 1.14872C103.564 0.842396 103.411 0.574361 103.066 0.497779C101.725 0.153162 99.7721 0 98.5465 0C91.2307 0 87.5154 2.56547 87.5154 7.773C87.5154 16.0055 98.738 15.0865 98.738 19.5282C98.738 21.4811 96.5164 22.2852 93.6819 22.2852C91.8818 22.2852 90.1199 21.9023 88.128 20.945C87.5921 20.677 87.3239 20.8684 87.2088 21.2513C87.0939 21.7108 87.0939 22.0554 87.0939 22.5149C87.0939 24.8889 88.4729 27.5693 93.9119 27.5693C100.117 27.5693 104.943 24.8889 104.943 19.2985C104.943 10.8745 93.7204 12.1381 93.7204 7.73472C93.7204 6.81574 94.3331 5.28412 98.2017 5.28412C99.2743 5.28412 100.844 5.39898 102.185 5.66702ZM107.816 0.382906C107.356 0.382906 107.049 0.574358 107.088 1.03384C107.318 3.86736 108.237 5.13095 110.267 5.43727V26.612C110.267 26.9183 110.535 27.1864 110.841 27.1864H115.706C116.012 27.1864 116.28 26.9183 116.28 26.612V13.708L123.711 24.2763C125.32 26.5737 126.852 27.7607 129.725 27.7607C131.18 27.7607 132.252 27.1481 132.827 26.6886C133.057 26.4971 133.172 26.2291 132.827 25.9228C131.027 24.238 126.43 17.7286 122.983 13.2869C122.868 13.1337 122.868 12.9805 122.983 12.8274L131.601 1.45504C132.023 0.880682 131.678 0.382906 130.988 0.382906H126.277C125.55 0.382906 125.013 0.650941 124.668 1.14872L116.28 12.4828V3.33129C116.28 1.53163 114.94 0.191452 113.14 0.191452C111.263 0.191452 109.692 0.382906 107.816 0.382906ZM141.1 0.382906C140.641 0.382906 140.334 0.574358 140.373 1.03384C140.602 3.86736 141.522 5.13095 143.552 5.43727L136.159 26.3057C136.006 26.7652 136.312 27.1864 136.772 27.1864H141.866C142.326 27.1864 142.518 26.9566 142.632 26.6503L144.203 22.0171C144.318 21.6725 144.471 21.5194 144.816 21.5194H154.889C155.272 21.5194 155.463 21.6342 155.579 22.0171L156.421 24.5443C157.187 26.8035 158.758 27.7607 161.4 27.7607C162.971 27.7607 163.929 27.3395 164.426 26.9566C164.58 26.8418 164.58 26.612 164.465 26.4588C164.082 25.9228 163.507 25.0421 162.779 23.051L155.885 3.71419C155.081 1.49334 154.161 0.191452 150.331 0.191452C147.152 0.191452 144.279 0.382906 141.1 0.382906ZM153.587 16.197H146.386C146.079 16.197 145.965 16.0438 146.041 15.7757L149.412 5.24581H149.91C150.408 5.24581 150.676 5.51384 150.867 6.12649L153.893 15.7375C153.97 16.0438 153.893 16.197 153.587 16.197ZM168.218 5.43727V18.0349C168.218 24.4295 172.01 27.531 179.326 27.531C186.335 27.531 190.433 24.1231 190.433 18.0349V0.957268C190.433 0.650941 190.165 0.382906 189.859 0.382906H184.995C184.688 0.382906 184.42 0.650941 184.42 0.957268V16.7713C184.42 20.3706 182.582 22.2469 179.326 22.2469C176.07 22.2469 174.232 20.3706 174.232 16.7713V3.36958C174.232 1.2253 172.93 0.191452 171.052 0.191452C169.521 0.191452 167.797 0.344617 165.767 0.382906C165.307 0.382906 165.001 0.574358 165.039 1.03384C165.269 3.86736 166.188 5.13095 168.218 5.43727ZM208.589 5.70531H214.717C215.023 5.70531 215.292 5.43727 215.292 5.13095V0.957268C215.292 0.650941 215.023 0.382906 214.717 0.382906H195.681C195.375 0.382906 195.107 0.650941 195.107 0.957268V5.13095C195.107 5.43727 195.375 5.70531 195.681 5.70531H201.809C202.039 5.70531 202.192 5.85845 202.192 6.0882V20.6004C202.192 25.6165 203.686 27.5693 207.401 27.5693C210.542 27.5693 212.343 25.3867 212.649 23.5104C212.764 22.8212 212.572 22.4766 211.998 22.5532C211.576 22.5915 210.849 22.5915 210.427 22.5149C208.819 22.2852 208.206 21.5959 208.206 18.7624V6.0882C208.206 5.85845 208.359 5.70531 208.589 5.70531Z" fill="#6B7280"/>
<path d="M101.734 39.1896L100.632 40.4199L103.429 43.1104L106.263 40.3827L105.172 39.1941L103.447 40.6776L101.734 39.1896ZM119.399 39.6898V41.1488C119.892 41.1764 120.383 41.2265 120.872 41.2884V43.413C120.474 43.3826 120.107 43.3637 119.719 43.3637C118.325 43.3637 117.135 43.8187 116.296 44.7121C115.459 45.603 115.013 46.8839 115.013 48.4567C115.013 49.7308 115.276 50.8241 115.862 51.6083C116.463 52.4112 117.365 52.8392 118.516 52.8392C119.45 52.8392 120.275 52.4947 120.894 51.9139C120.887 52.1663 120.889 52.4188 120.889 52.6712L121.278 52.6864C122.368 52.7294 123.345 52.6623 124.424 52.5184V51.0594C123.931 51.032 123.441 50.9815 122.951 50.9192V39.5364C121.119 39.4649 120.283 39.5723 119.399 39.6898ZM136.147 39.6911V41.1488C136.639 41.1764 137.13 41.2265 137.62 41.2884V52.687H139.681V49.0757L142.394 52.687H145.089L141.124 47.6591L144.83 43.4654H142.255L139.681 46.5336V39.5364C137.84 39.4645 137.014 39.5719 136.147 39.6911ZM126.916 39.8932C126.218 39.8932 125.648 40.4636 125.648 41.1608C125.648 41.8803 126.224 42.4284 126.916 42.4284C127.625 42.4284 128.2 41.8632 128.2 41.1608C128.2 40.4365 127.62 39.8932 126.916 39.8932ZM97.1786 40.1882L95.0995 40.7699V43.4654H93.3046V45.2724H95.0995V49.9125C95.0995 50.8111 95.2289 51.5632 95.6637 52.0845C96.1149 52.6258 96.809 52.8222 97.6885 52.8222C98.4036 52.8222 98.9976 52.7083 99.7171 52.5493L99.5357 50.6767C99.0372 50.8236 98.5294 50.9013 98.01 50.9136C97.5562 50.9136 97.4254 50.8215 97.3561 50.7216C97.2507 50.5693 97.1786 50.2525 97.1786 49.5576V45.2724H99.6337V43.4654H97.1786V40.1882ZM90.475 43.3132C89.3538 43.3132 88.452 43.5908 87.8215 44.09C87.1834 44.5955 86.8531 45.3055 86.8531 46.0871C86.8531 46.9417 87.1565 47.5438 87.632 47.9742C88.0858 48.3846 88.6727 48.6152 89.1912 48.7946C89.6503 48.9453 90.1066 49.0978 90.5375 49.3176C90.6979 49.413 90.8066 49.5103 90.8755 49.6138C90.9412 49.7124 90.9848 49.8367 90.9848 50.0142C90.9848 50.3224 90.8689 50.5395 90.6512 50.6944C90.4151 50.8626 90.0223 50.9818 89.442 50.9818C88.6117 50.9977 87.8272 50.7546 87.0609 50.4677L86.8537 52.5058C88.0387 52.8014 88.6663 52.8392 89.3062 52.8392C90.4733 52.8392 91.4169 52.5383 92.0778 52.01C92.7444 51.4767 93.0974 50.7303 93.0974 49.9125C93.0974 49.0611 92.7924 48.4605 92.3159 48.0304C91.8179 47.5811 91.2075 47.3591 90.4219 47.0925C90.0147 46.9548 89.6714 46.839 89.3991 46.6776C89.237 46.5819 89.1281 46.4842 89.0585 46.3808C88.9926 46.2828 88.9486 46.1597 88.9486 45.9854C88.9486 45.7147 89.0475 45.5229 89.2361 45.3848C89.4418 45.2341 89.7947 45.1201 90.3398 45.1201C91.0427 45.1057 91.7162 45.2968 92.3816 45.4966L92.5939 43.5602C91.8965 43.4068 91.1883 43.3297 90.475 43.3132ZM133.215 43.3132C132.093 43.3132 131.192 43.5908 130.561 44.09C129.923 44.5955 129.593 45.3055 129.593 46.0871C129.593 46.9417 129.896 47.5438 130.372 47.9742C130.825 48.3846 131.412 48.6152 131.931 48.7946C132.39 48.9453 132.846 49.0978 133.277 49.3176C133.437 49.413 133.546 49.5103 133.615 49.6138C133.681 49.7124 133.725 49.8367 133.725 50.0142C133.725 50.3224 133.608 50.5395 133.391 50.6944C133.155 50.8626 132.762 50.9818 132.182 50.9818C131.351 50.9978 130.567 50.7542 129.8 50.4677L129.594 52.5058C130.78 52.8015 131.407 52.8392 132.046 52.8392C133.213 52.8392 134.157 52.5383 134.818 52.01C135.485 51.4767 135.838 50.7303 135.838 49.9125C135.838 49.0611 135.532 48.4605 135.056 48.0304C134.558 47.5811 133.948 47.3591 133.162 47.0925C132.755 46.9548 132.411 46.839 132.139 46.6776C131.977 46.5819 131.868 46.4842 131.798 46.3808C131.732 46.2828 131.689 46.1597 131.689 45.9854C131.689 45.7147 131.788 45.5229 131.976 45.3848C132.182 45.2341 132.535 45.1201 133.079 45.1201C133.782 45.1057 134.456 45.297 135.122 45.4966L135.333 43.5602C134.636 43.4068 133.928 43.3297 133.215 43.3132ZM148.912 43.3132C147.488 43.3132 146.369 43.8545 145.612 44.7564C144.862 45.6495 144.495 46.862 144.495 48.1694C144.495 49.6811 144.879 50.8591 145.619 51.662C146.364 52.4691 147.414 52.8392 148.624 52.8392C150.047 52.8392 151.164 52.2973 151.917 51.3948C152.663 50.5017 153.025 49.2895 153.025 47.9831C153.025 46.4713 152.64 45.2937 151.902 44.4911C151.16 43.684 150.114 43.3132 148.912 43.3132ZM105.263 43.3265C104.417 43.3855 103.837 43.752 103.456 44.1324C103.463 43.9152 103.461 43.6978 103.461 43.4806L103.072 43.4654C101.985 43.4229 100.996 43.4885 99.9255 43.6353V45.0936C100.418 45.1211 100.909 45.1712 101.399 45.2332V52.687H103.461V48.914C103.461 47.5232 103.681 46.5558 104.075 45.9867C104.266 45.7115 104.494 45.532 104.766 45.4328C105.267 45.2564 105.782 45.3755 106.286 45.4675L106.371 43.3966C106.004 43.3358 105.635 43.3157 105.263 43.3265ZM124.411 43.6353V45.093C124.904 45.1215 125.395 45.1712 125.885 45.2332V52.687H127.946V43.4806C126.116 43.4092 125.285 43.5155 124.411 43.6353ZM119.634 45.1713C120.029 45.1713 120.448 45.212 120.872 45.2951V47.9319C120.872 48.6139 120.684 49.4019 120.314 50.0066C119.947 50.6045 119.434 50.9818 118.77 50.9818C118.208 50.9818 117.836 50.7631 117.584 50.3653C117.313 49.9385 117.16 49.2711 117.16 48.3557C117.16 47.1382 117.433 46.3519 117.847 45.8736C118.252 45.4057 118.845 45.1713 119.634 45.1713ZM148.777 45.1713C149.451 45.1713 149.963 45.4221 150.318 45.878C150.683 46.3469 150.912 47.0737 150.912 48.0677C150.912 49.1584 150.647 49.8779 150.269 50.3186C149.897 50.7519 149.374 50.9647 148.743 50.9647C148.067 50.9647 147.56 50.7163 147.21 50.2662C146.85 49.8022 146.624 49.0804 146.624 48.0847C146.624 47.0496 146.865 46.3212 147.235 45.8597C147.596 45.4099 148.114 45.1713 148.777 45.1713ZM191.976 60.8514V62.3097C192.845 62.3679 193.07 62.3974 193.449 62.4492V73.8472H195.51V60.6966C193.672 60.6249 192.845 60.7321 191.976 60.8514ZM216.374 61.0535C215.677 61.0535 215.106 61.6238 215.106 62.321C215.106 63.0402 215.682 63.5892 216.374 63.5892C217.084 63.5892 217.659 63.0234 217.659 62.321C217.659 61.5967 217.078 61.0535 216.374 61.0535ZM113.25 61.4602C111.956 61.4602 110.888 61.7947 110.135 62.4107C109.374 63.0325 108.968 63.9154 108.968 64.9282C108.968 65.9584 109.351 66.6917 109.928 67.2359C110.486 67.762 111.215 68.0995 111.88 68.3848C112.484 68.6354 113.088 68.886 113.638 69.2424C114.064 69.5467 114.302 69.8931 114.302 70.4127C114.302 71.0313 114.077 71.4121 113.723 71.6569C113.345 71.9182 112.771 72.0574 112.031 72.0574C111.074 72.0804 110.166 71.7999 109.285 71.4649L108.971 73.5479C109.934 73.8521 110.938 73.9846 111.946 73.9994C113.352 73.9994 114.483 73.6305 115.269 72.9618C116.061 72.2879 116.465 71.3418 116.465 70.2776C116.465 69.2428 116.081 68.5047 115.5 67.9559C114.917 67.4043 114.206 67.078 113.205 66.6574C112.643 66.4207 112.148 66.2131 111.764 65.9444C111.332 65.6433 111.098 65.3068 111.098 64.8094C111.098 64.3305 111.262 63.9913 111.559 63.7597C111.873 63.5159 112.385 63.3517 113.148 63.3517C113.952 63.3357 114.725 63.5465 115.486 63.7787L115.748 61.7678C114.45 61.488 113.849 61.4602 113.25 61.4602ZM156.769 61.4602C155.205 61.4602 153.754 62.0261 152.695 63.1288C151.635 64.2318 150.997 65.8408 150.997 67.8738C150.997 69.6743 151.463 71.2085 152.401 72.2992C153.346 73.3987 154.731 73.9994 156.464 73.9994C158.028 73.9994 159.479 73.4335 160.538 72.3308C161.598 71.2278 162.237 69.6188 162.237 67.5858C162.237 65.7853 161.771 64.2511 160.833 63.1604C159.888 62.0613 158.503 61.4602 156.769 61.4602ZM145.627 61.5619C144.704 61.5619 143.67 61.5887 142.395 61.6472V73.8473H144.507V68.7688H144.812L148.503 73.8473H151.14C149.782 72.0912 148.53 70.2516 147.144 68.5161C147.797 68.3477 148.403 68.0514 148.888 67.6041C149.553 66.9901 149.96 66.1178 149.96 64.9958C149.96 63.8116 149.5 62.9253 148.688 62.3514C147.898 61.7929 146.821 61.5619 145.627 61.5619ZM87.4798 61.6124V73.8472H89.5583C89.5688 70.9362 89.5584 68.0253 89.4818 65.1151C91.2817 68.0526 93.1602 70.942 95.0117 73.8473H96.9582V61.6124H94.8797C94.874 64.3457 94.8732 67.079 94.9491 69.8115C93.2398 67.0635 91.486 64.3428 89.7484 61.6124L87.4798 61.6124ZM102.232 61.6124L97.7358 73.8472H99.9559L100.955 71.0203H105.463L106.462 73.8472H108.8L104.321 61.6124H102.232ZM118.112 61.6124V73.8472H120.225V68.4643H125.631V73.8472H127.726V61.6124H125.631V66.5721H120.225V61.6124H118.112ZM130.304 61.6124V69.6511C130.304 70.6664 130.477 71.7681 131.178 72.6169C131.892 73.4813 133.081 73.9994 134.925 73.9994C136.474 73.9994 137.719 73.5916 138.574 72.7363C139.43 71.881 139.834 70.641 139.834 69.1092V61.6124H137.755V69.2109C137.755 70.3847 137.505 71.0854 137.094 71.4997C136.684 71.9129 136.032 72.1249 135.027 72.1249C133.863 72.1249 133.247 71.8085 132.906 71.391C132.551 70.9568 132.417 70.3242 132.417 69.533V61.6124H130.304ZM167.439 61.6124V73.8472H169.552V68.8073L173.82 73.8472H176.703L171.081 67.5233L176.52 61.6124H173.843L169.552 66.4237V61.6124H167.439ZM156.616 63.3859C157.788 63.3859 158.63 63.8258 159.19 64.565C159.762 65.3197 160.073 66.429 160.073 67.8062C160.073 69.2556 159.667 70.3203 159.051 71.0172C158.437 71.7111 157.585 72.0738 156.616 72.0738C155.454 72.0738 154.613 71.6345 154.049 70.8927C153.475 70.1354 153.16 69.0219 153.16 67.637C153.16 66.1967 153.566 65.1361 154.182 64.4412C154.796 63.7492 155.648 63.3859 156.616 63.3859ZM145.492 63.4029C146.313 63.4029 146.887 63.5831 147.248 63.8709C147.595 64.1474 147.796 64.5635 147.796 65.1656C147.796 65.7587 147.595 66.1892 147.237 66.4812C146.866 66.7832 146.275 66.9789 145.424 66.9789C144.991 66.9789 144.511 66.9695 144.507 66.9694V63.4301C144.835 63.412 145.163 63.4061 145.492 63.4029ZM180.34 64.4734C178.917 64.4734 177.797 65.0147 177.04 65.9166C176.29 66.8094 175.923 68.0219 175.923 69.3296C175.923 70.8413 176.308 72.0196 177.048 72.8222C177.792 73.6296 178.843 73.9994 180.052 73.9994C181.476 73.9994 182.593 73.4575 183.346 72.555C184.091 71.6616 184.453 70.4497 184.453 69.1433C184.453 67.6315 184.068 66.4539 183.331 65.6513C182.589 64.8442 181.542 64.4734 180.34 64.4734ZM201.388 64.4734C199.965 64.4734 198.845 65.0147 198.088 65.9166C197.338 66.8094 196.971 68.0222 196.971 69.3296C196.971 70.8413 197.356 72.0196 198.096 72.8222C198.84 73.6296 199.892 73.9994 201.101 73.9994C202.524 73.9994 203.641 73.4575 204.394 72.555C205.139 71.6619 205.502 70.4497 205.502 69.1433C205.502 67.6315 205.116 66.4539 204.378 65.6513C203.636 64.8442 202.59 64.4734 201.388 64.4734ZM227.282 65.885C226.577 66.76 226.215 67.9565 226.215 69.2791C226.215 70.806 226.565 72.0016 227.317 72.8159C228.074 73.6366 229.173 73.9994 230.514 73.9994C231.647 74.0148 232.741 73.718 233.803 73.3577L233.466 71.5477C232.575 71.9122 231.644 72.1055 230.683 72.1413C229.826 72.1413 229.266 71.9062 228.91 71.482C228.589 71.0985 228.384 70.5011 228.349 69.615H233.935C233.977 69.1824 233.994 68.7485 234 68.314C234 67.3203 233.748 66.3581 233.141 65.6374C232.525 64.9053 231.587 64.4734 230.313 64.4734C229.039 64.4734 227.995 65.0012 227.282 65.885ZM223.267 64.5075C221.977 64.5075 220.865 64.9492 220.08 65.8294C219.299 66.7041 218.882 67.9662 218.882 69.5329C218.882 71.1976 219.345 72.3312 220.134 73.0413C220.915 73.7437 221.945 73.966 222.945 73.966C223.996 73.9895 225.01 73.7323 225.971 73.3293L225.549 71.4624C224.81 71.8586 224.016 72.0402 223.182 72.0738C222.285 72.0738 221.783 71.7624 221.483 71.3171C221.163 70.8411 221.029 70.1475 221.029 69.3125C221.029 68.3854 221.242 67.6396 221.605 67.1368C221.957 66.6485 222.467 66.365 223.148 66.365C223.966 66.3525 224.733 66.6226 225.485 66.91L225.927 65.0222C225.076 64.6918 224.179 64.5239 223.267 64.5075ZM103.22 64.625C103.746 66.1436 104.306 67.6507 104.851 69.1623H101.584C102.114 67.6447 102.706 66.1483 103.22 64.625ZM185.118 64.6256V66.5684C186.396 66.5682 187.675 66.5746 188.953 66.5532L185.033 72.4237V73.8472H191.667V71.871C190.342 71.8697 189.017 71.8663 187.693 71.8868L191.582 66.0321V64.6256L185.118 64.6256ZM205.261 64.6256L208.676 73.8472H210.659L213.871 65.3614V66.2532C214.363 66.2817 214.854 66.3314 215.344 66.3934V73.8472H217.405V64.6414L217.017 64.6256C215.802 64.5781 214.703 64.6841 214.096 64.7646L214.149 64.6256H211.908C211.217 66.6893 210.373 68.7036 209.712 70.7772C209.004 68.7223 208.273 66.6753 207.55 64.6256H205.261ZM230.243 66.2633C230.79 66.2633 231.19 66.4468 231.456 66.7559C231.674 67.0085 231.829 67.3777 231.875 67.8757H228.456C228.574 67.3913 228.776 67.0238 229.025 66.766C229.341 66.4378 229.755 66.2633 230.243 66.2633ZM180.205 66.3315C180.879 66.3315 181.392 66.5829 181.747 67.0389C182.112 67.5078 182.341 68.2339 182.341 69.2279C182.341 70.3183 182.076 71.0378 181.697 71.4788C181.325 71.9118 180.802 72.1249 180.171 72.1249C179.496 72.1249 178.988 71.8765 178.638 71.4264C178.278 70.9624 178.052 70.2406 178.052 69.245C178.052 68.2099 178.293 67.4811 178.664 67.0199C179.025 66.5698 179.542 66.3315 180.205 66.3315ZM201.253 66.3315C201.927 66.3315 202.439 66.5829 202.795 67.0389C203.159 67.5078 203.389 68.2339 203.389 69.2279C203.389 70.3183 203.124 71.0381 202.745 71.4788C202.373 71.9118 201.851 72.1249 201.22 72.1249C200.544 72.1249 200.036 71.8765 199.686 71.4264C199.326 70.9624 199.101 70.2406 199.101 69.245C199.101 68.2099 199.342 67.4811 199.712 67.0199C200.073 66.5698 200.591 66.3315 201.253 66.3315ZM110.598 43.517C109.309 43.517 108.265 44.0448 107.553 44.9286C106.847 45.8036 106.485 47.0001 106.485 48.3227C106.485 49.8496 106.836 51.0452 107.587 51.8595C108.344 52.6802 109.444 53.043 110.784 53.043C111.917 53.0584 113.011 52.7616 114.074 52.4014L113.736 50.5913C112.845 50.9558 111.914 51.1491 110.953 51.1849C110.096 51.1849 109.536 50.9498 109.181 50.5256C108.859 50.1421 108.655 49.5447 108.619 48.6587H114.205C114.247 48.226 114.265 47.7922 114.27 47.3576C114.27 46.3639 114.018 45.4017 113.412 44.681C112.795 43.9489 111.857 43.517 110.598 43.517ZM110.513 45.3069C111.06 45.3069 111.46 45.4904 111.727 45.7995C111.945 46.0521 112.1 46.4213 112.145 46.9193H108.726C108.844 46.4349 109.047 46.0673 109.295 45.8096C109.611 45.4814 110.025 45.3069 110.513 45.3069Z" fill="#6B7280"/>
</svg>
