<svg width="48" height="48" viewBox="0 0 48 48" fill="none" xmlns="http://www.w3.org/2000/svg">
<path d="M12.3333 13.0909L19 18.5455L12.3333 24M22.3333 24H29M9 44H39C40.3261 44 41.5979 43.4253 42.5355 42.4024C43.4732 41.3795 44 39.9921 44 38.5455V9.45455C44 8.00791 43.4732 6.62053 42.5355 5.5976C41.5979 4.57467 40.3261 4 39 4H9C7.67392 4 6.40215 4.57467 5.46447 5.5976C4.52678 6.62053 4 8.00791 4 9.45455V38.5455C4 39.9921 4.52678 41.3795 5.46447 42.4024C6.40215 43.4253 7.67392 44 9 44Z" stroke="#34D399" stroke-width="4" stroke-linecap="round" stroke-linejoin="round"/>
</svg>
